<?xml version="1.0" encoding="UTF-8" standalone="no"?>
<!-- Created with Inkscape (http://www.inkscape.org/) -->

<svg
   xmlns:dc="http://purl.org/dc/elements/1.1/"
   xmlns:cc="http://creativecommons.org/ns#"
   xmlns:rdf="http://www.w3.org/1999/02/22-rdf-syntax-ns#"
   xmlns:svg="http://www.w3.org/2000/svg"
   xmlns="http://www.w3.org/2000/svg"
   xmlns:sodipodi="http://sodipodi.sourceforge.net/DTD/sodipodi-0.dtd"
   xmlns:inkscape="http://www.inkscape.org/namespaces/inkscape"
   width="566.875"
   height="458.90625"
   id="svg2"
   version="1.1"
   inkscape:version="0.48.3.1 r9886"
   sodipodi:docname="expand.svg">
  <defs
     id="defs4">
    <marker
       inkscape:stockid="DotM"
       orient="auto"
       refY="0"
       refX="0"
       id="DotM"
       style="overflow:visible">
      <path
         id="path3858"
         d="m -2.5,-1 c 0,2.76 -2.24,5 -5,5 -2.76,0 -5,-2.24 -5,-5 0,-2.76 2.24,-5 5,-5 2.76,0 5,2.24 5,5 z"
         style="fill-rule:evenodd;stroke:#000000;stroke-width:1pt"
         transform="matrix(0.4,0,0,0.4,2.96,0.4)"
         inkscape:connector-curvature="0" />
    </marker>
    <marker
       inkscape:stockid="TriangleOutL"
       orient="auto"
       refY="0"
       refX="0"
       id="TriangleOutL"
       style="overflow:visible">
      <path
         id="path3936"
         d="m 5.77,0 -8.65,5 0,-10 8.65,5 z"
         style="fill-rule:evenodd;stroke:#000000;stroke-width:1pt"
         transform="scale(0.8,0.8)"
         inkscape:connector-curvature="0" />
    </marker>
    <marker
       inkscape:stockid="Arrow2Mend"
       orient="auto"
       refY="0"
       refX="0"
       id="Arrow2Mend"
       style="overflow:visible">
      <path
         id="path3821"
         style="fill-rule:evenodd;stroke-width:0.625;stroke-linejoin:round"
         d="M 8.7185878,4.0337352 -2.2072895,0.01601326 8.7185884,-4.0017078 c -1.7454984,2.3720609 -1.7354408,5.6174519 -6e-7,8.035443 z"
         transform="scale(-0.6,-0.6)"
         inkscape:connector-curvature="0" />
    </marker>
    <marker
       inkscape:stockid="Arrow2Lend"
       orient="auto"
       refY="0"
       refX="0"
       id="Arrow2Lend"
       style="overflow:visible">
      <path
         id="path3815"
         style="fill-rule:evenodd;stroke-width:0.625;stroke-linejoin:round"
         d="M 8.7185878,4.0337352 -2.2072895,0.01601326 8.7185884,-4.0017078 c -1.7454984,2.3720609 -1.7354408,5.6174519 -6e-7,8.035443 z"
         transform="matrix(-1.1,0,0,-1.1,-1.1,0)"
         inkscape:connector-curvature="0" />
    </marker>
    <marker
       inkscape:stockid="Arrow1Lend"
       orient="auto"
       refY="0"
       refX="0"
       id="Arrow1Lend"
       style="overflow:visible">
      <path
         id="path3797"
         d="M 0,0 5,-5 -12.5,0 5,5 0,0 z"
         style="fill-rule:evenodd;stroke:#000000;stroke-width:1pt"
         transform="matrix(-0.8,0,0,-0.8,-10,0)"
         inkscape:connector-curvature="0" />
    </marker>
    <marker
       inkscape:stockid="Arrow2Lend"
       orient="auto"
       refY="0"
       refX="0"
       id="Arrow2Lend-2"
       style="overflow:visible">
      <path
         inkscape:connector-curvature="0"
         id="path3815-5"
         style="fill-rule:evenodd;stroke-width:0.625;stroke-linejoin:round"
         d="M 8.7185878,4.0337352 -2.2072895,0.01601326 8.7185884,-4.0017078 c -1.7454984,2.3720609 -1.7354408,5.6174519 -6e-7,8.035443 z"
         transform="matrix(-1.1,0,0,-1.1,-1.1,0)" />
    </marker>
    <marker
       inkscape:stockid="Arrow2Lend"
       orient="auto"
       refY="0"
       refX="0"
       id="Arrow2Lend-4"
       style="overflow:visible">
      <path
         inkscape:connector-curvature="0"
         id="path3815-3"
         style="fill-rule:evenodd;stroke-width:0.625;stroke-linejoin:round"
         d="M 8.7185878,4.0337352 -2.2072895,0.01601326 8.7185884,-4.0017078 c -1.7454984,2.3720609 -1.7354408,5.6174519 -6e-7,8.035443 z"
         transform="matrix(-1.1,0,0,-1.1,-1.1,0)" />
    </marker>
    <marker
       inkscape:stockid="DotM"
       orient="auto"
       refY="0"
       refX="0"
       id="DotM-6"
       style="overflow:visible">
      <path
         inkscape:connector-curvature="0"
         id="path3858-4"
         d="m -2.5,-1 c 0,2.76 -2.24,5 -5,5 -2.76,0 -5,-2.24 -5,-5 0,-2.76 2.24,-5 5,-5 2.76,0 5,2.24 5,5 z"
         style="fill-rule:evenodd;stroke:#000000;stroke-width:1pt"
         transform="matrix(0.4,0,0,0.4,2.96,0.4)" />
    </marker>
    <marker
       inkscape:stockid="TriangleOutL"
       orient="auto"
       refY="0"
       refX="0"
       id="TriangleOutL-2"
       style="overflow:visible">
      <path
         inkscape:connector-curvature="0"
         id="path3936-4"
         d="m 5.77,0 -8.65,5 0,-10 8.65,5 z"
         style="fill-rule:evenodd;stroke:#000000;stroke-width:1pt"
         transform="scale(0.8,0.8)" />
    </marker>
  </defs>
  <sodipodi:namedview
     id="base"
     pagecolor="#ffffff"
     bordercolor="#666666"
     borderopacity="1.0"
     inkscape:pageopacity="0.0"
     inkscape:pageshadow="2"
     inkscape:zoom="1"
     inkscape:cx="312.20318"
     inkscape:cy="176.35836"
     inkscape:document-units="px"
     inkscape:current-layer="layer1"
     showgrid="false"
     showborder="true"
     inkscape:window-width="1920"
     inkscape:window-height="1004"
     inkscape:window-x="0"
     inkscape:window-y="24"
     inkscape:window-maximized="1"
     fit-margin-top="0"
     fit-margin-left="0"
     fit-margin-right="0"
     fit-margin-bottom="0" />
  <metadata
     id="metadata7">
    <rdf:RDF>
      <cc:Work
         rdf:about="">
        <dc:format>image/svg+xml</dc:format>
        <dc:type
           rdf:resource="http://purl.org/dc/dcmitype/StillImage" />
        <dc:title></dc:title>
      </cc:Work>
    </rdf:RDF>
  </metadata>
  <g
     inkscape:label="Layer 1"
     inkscape:groupmode="layer"
     id="layer1"
     transform="translate(500.4375,-40.90625)">
    <path
       sodipodi:type="arc"
       style="fill:#000000;stroke:#000000;stroke-width:6.98870992999999974;stroke-miterlimit:4;stroke-opacity:1;stroke-dasharray:none;fill-opacity:0.30593607"
       id="path3761"
       sodipodi:cx="-30"
       sodipodi:cy="265.21933"
       sodipodi:rx="94.285713"
       sodipodi:ry="94.285713"
       d="m 64.285713,265.21933 a 94.285713,94.285713 0 1 1 -188.571423,0 94.285713,94.285713 0 1 1 188.571423,0 z"
       transform="matrix(0.58653288,0,0,0.58678806,-78.947902,170.78263)" />
    <path
       sodipodi:type="arc"
       style="fill:none;stroke:#ff2626;stroke-width:2.32150245000000011;stroke-miterlimit:4;stroke-opacity:1;stroke-dasharray:none;stroke-dashoffset:0"
       id="path5278"
       sodipodi:cx="-94.045204"
       sodipodi:cy="-147.08426"
       sodipodi:rx="37.476658"
       sodipodi:ry="40.305088"
       d="m -56.568546,-147.08426 a 37.476658,40.305088 0 1 1 -74.953314,0 37.476658,40.305088 0 1 1 74.953314,0 z"
       transform="matrix(1.295473,0,0,1.2045626,-276.31436,327.20763)" />
    <path
       transform="matrix(1.1981417,0,0,1.198663,-245.13076,-53.804776)"
       d="m 64.285713,265.21933 a 94.285713,94.285713 0 1 1 -188.571423,0 94.285713,94.285713 0 1 1 188.571423,0 z"
       sodipodi:ry="94.285713"
       sodipodi:rx="94.285713"
       sodipodi:cy="265.21933"
       sodipodi:cx="-30"
       id="path3763"
       style="fill:#000000;stroke:#000000;stroke-width:3.42122149000000020;stroke-miterlimit:4;stroke-opacity:1;stroke-dasharray:none;fill-opacity:0.30593607"
       sodipodi:type="arc" />
    <path
       sodipodi:type="arc"
       style="fill:none;stroke:#2639ff;stroke-width:2.26501274;stroke-miterlimit:4;stroke-opacity:1;stroke-dasharray:4.53002566, 9.06005132;stroke-dashoffset:0"
       id="path3765"
       sodipodi:cx="-30"
       sodipodi:cy="265.21933"
       sodipodi:rx="94.285713"
       sodipodi:ry="94.285713"
       d="m 64.285713,265.21933 a 94.285713,94.285713 0 1 1 -188.571423,0 94.285713,94.285713 0 1 1 188.571423,0 z"
       transform="matrix(1.8097506,0,0,1.810538,-226.78249,-216.08583)" />
    <path
       transform="matrix(1.1981417,0,0,1.1986629,-60.599638,8.5015904)"
       d="m 64.285713,265.21933 a 94.285713,94.285713 0 1 1 -188.571423,0 94.285713,94.285713 0 1 1 188.571423,0 z"
       sodipodi:ry="94.285713"
       sodipodi:rx="94.285713"
       sodipodi:cy="265.21933"
       sodipodi:cx="-30"
       id="path3767"
       style="fill:none;stroke:#2639ff;stroke-width:3.42122149;stroke-miterlimit:4;stroke-opacity:1;stroke-dasharray:6.84244303, 13.68488606;stroke-dashoffset:0"
       sodipodi:type="arc" />
    <path
       style="fill:none;stroke:#000000;stroke-width:2.9000001;stroke-linecap:butt;stroke-linejoin:miter;stroke-miterlimit:4;stroke-opacity:1;stroke-dasharray:none;marker-start:url(#DotM);marker-end:url(#TriangleOutL)"
       d="m -304.96652,241.71832 -84.30402,-84.86534"
       id="path3788"
       inkscape:connector-curvature="0"
       sodipodi:nodetypes="cc" />
    <path
       sodipodi:type="arc"
       style="fill:none;stroke:#000000;stroke-width:183.62072754;stroke-miterlimit:4;stroke-opacity:1;stroke-dasharray:none"
       id="path5242"
       sodipodi:cx="-30"
       sodipodi:cy="265.21933"
       sodipodi:rx="94.285713"
       sodipodi:ry="94.285713"
       d="m 64.285713,265.21933 a 94.285713,94.285713 0 1 1 -188.571423,0 94.285713,94.285713 0 1 1 188.571423,0 z"
       transform="matrix(0.02232377,0,0,0.02233349,-280.40529,258.18056)" />
    <path
       transform="matrix(0.02614628,0,0,0.02615766,-95.75951,319.47265)"
       d="m 64.285713,265.21933 a 94.285713,94.285713 0 1 1 -188.571423,0 94.285713,94.285713 0 1 1 188.571423,0 z"
       sodipodi:ry="94.285713"
       sodipodi:rx="94.285713"
       sodipodi:cy="265.21933"
       sodipodi:cx="-30"
       id="path5244"
       style="fill:none;stroke:#000000;stroke-width:156.77598572;stroke-miterlimit:4;stroke-opacity:1;stroke-dasharray:none"
       sodipodi:type="arc" />
    <path
       style="fill:none;stroke:#000000;stroke-width:2.9000001;stroke-linecap:butt;stroke-linejoin:miter;stroke-miterlimit:4;stroke-opacity:1;stroke-dasharray:none;marker-start:url(#DotM);marker-end:url(#TriangleOutL)"
       d="m -156.02358,273.33152 25.66089,-40.46382"
       id="path3788-3"
       inkscape:connector-curvature="0"
       sodipodi:nodetypes="cc" />
    <path
       transform="matrix(1.295473,0,0,1.2045626,0.16439137,400.03964)"
       d="m -56.568546,-147.08426 a 37.476658,40.305088 0 1 1 -74.953314,0 37.476658,40.305088 0 1 1 74.953314,0 z"
       sodipodi:ry="40.305088"
       sodipodi:rx="37.476658"
       sodipodi:cy="-147.08426"
       sodipodi:cx="-94.045204"
       id="path5280"
       style="fill:none;stroke:#ff2626;stroke-width:2.32150245;stroke-miterlimit:4;stroke-opacity:1;stroke-dasharray:none;stroke-dashoffset:0"
       sodipodi:type="arc" />
  </g>
</svg>
